<?xml version="1.0" encoding="utf-8"?>
<!-- Generator: Adobe Illustrator 25.0.0, SVG Export Plug-In . SVG Version: 6.00 Build 0)  -->
<svg version="1.1" id="Layer_1" xmlns="http://www.w3.org/2000/svg" xmlns:xlink="http://www.w3.org/1999/xlink" x="0px" y="0px"
	 viewBox="0 0 464.83 306.45" style="enable-background:new 0 0 464.83 306.45;" xml:space="preserve">
<style type="text/css">
	.st0{fill:#4C4C4C;}
	.st1{fill:url(#SVGID_1_);}
	.st2{fill:url(#SVGID_2_);}
	.st3{fill:url(#SVGID_3_);}
	.st4{fill:url(#SVGID_4_);}
	.st5{fill:url(#SVGID_5_);}
	.st6{fill:url(#SVGID_6_);}
	.st7{fill:url(#SVGID_7_);}
</style>
<g>
	<path class="st0" d="M60.65,297.11v-14.15h4.62v14.08c0,2.81,2.11,4.95,4.95,4.95c2.84,0,4.95-2.14,4.95-4.95v-14.08h4.62v14.15
		c0,5.32-4.11,9.33-9.57,9.33C64.77,306.45,60.65,302.43,60.65,297.11"/>
	<polygon class="st0" points="108.67,282.97 108.67,306.04 103.99,306.04 93.49,290.89 93.49,306.04 88.87,306.04 88.87,282.97 
		93.55,282.97 104.06,298.12 104.06,282.97 	"/>
	<path class="st0" d="M139,294.51c0,6.59-5.05,11.54-11.77,11.54h-9.03v-23.08h9.03C133.95,282.97,139,287.92,139,294.51
		 M134.25,294.51c0-4.11-3.04-7.19-7.12-7.19h-4.31v14.38h4.31C131.21,301.7,134.25,298.62,134.25,294.51"/>
	<polygon class="st0" points="163.04,301.7 163.04,306.05 147.35,306.05 147.35,282.97 162.87,282.97 162.87,287.32 151.97,287.32 
		151.97,292.26 161.77,292.26 161.77,296.61 151.97,296.61 151.97,301.7 	"/>
	<path class="st0" d="M178.98,297.82h-2.74v8.23h-4.62v-23.08h9.83c4.45,0,7.83,3.24,7.83,7.56c0,3.31-2.11,5.96-5.18,6.92l5.75,8.6
		h-5.55L178.98,297.82z M176.24,293.8h5.12c1.8,0,3.18-1.4,3.18-3.24c0-1.84-1.37-3.24-3.18-3.24h-5.12V293.8z"/>
	<polygon class="st0" points="227.94,282.97 220.75,306.04 216.14,306.04 211.59,290.03 207,306.04 202.42,306.04 195.2,282.97 
		200.08,282.97 204.83,299.75 209.61,282.97 213.66,282.97 218.44,299.75 223.19,282.97 	"/>
	<path class="st0" d="M242.98,297.82h-2.74v8.23h-4.62v-23.08h9.83c4.45,0,7.83,3.24,7.83,7.56c0,3.31-2.11,5.96-5.18,6.92l5.75,8.6
		h-5.55L242.98,297.82z M240.24,293.8h5.12c1.8,0,3.18-1.4,3.18-3.24c0-1.84-1.37-3.24-3.18-3.24h-5.12V293.8z"/>
	<rect x="261.63" y="282.97" class="st0" width="4.62" height="23.08"/>
	<polygon class="st0" points="292.27,287.32 285.61,287.32 285.61,306.04 280.99,306.04 280.99,287.32 274.31,287.32 274.31,282.97 
		292.27,282.97 	"/>
	<rect x="300.32" y="282.97" class="st0" width="4.61" height="23.08"/>
	<polygon class="st0" points="334.26,282.97 334.26,306.04 329.58,306.04 319.08,290.89 319.08,306.04 314.46,306.04 314.46,282.97 
		319.14,282.97 329.65,298.12 329.65,282.97 	"/>
	<path class="st0" d="M366.39,293.07v1.6c0,6.79-4.95,11.77-11.7,11.77c-6.89,0-12.07-5.15-12.07-11.94
		c0-6.79,5.25-11.94,12.18-11.94c4.05,0,7.59,1.74,9.63,4.52l-3.48,2.78c-1.37-1.77-3.55-2.88-6.05-2.88
		c-4.28,0-7.53,3.21-7.53,7.53c0,4.31,3.21,7.53,7.49,7.53c3.31,0,5.99-1.98,6.69-4.85h-6.25v-4.11H366.39z"/>
	<g>
		<path class="st0" d="M21.89,209.84L0,266.6h10.54l4.17-11.41h26.6l4.18,11.41H56.2l-21.8-56.76H21.89z M17.89,246.37l10.13-27.5
			l10.02,27.5H17.89z"/>
		<path class="st0" d="M108.83,244.76c7.6-2.39,12.5-8.94,12.5-16.67c0-10.4-8.14-18.25-18.93-18.25H78.36v56.76h9.75v-20.95h8.53
			l13.54,20.95h11.72l-14.35-21.44L108.83,244.76z M88.12,237.43v-18.52h14.03c5.18,0,9.09,3.98,9.09,9.26
			c0,5.28-3.91,9.26-9.09,9.26H88.12z"/>
		<polygon class="st0" points="139.72,218.91 156.75,218.91 156.75,266.6 166.51,266.6 166.51,218.91 183.46,218.91 183.46,209.84 
			139.72,209.84 		"/>
		<rect x="206.44" y="209.84" class="st0" width="9.75" height="56.76"/>
		<path class="st0" d="M263.5,233.24c-5.76-1.26-12.37-3.38-12.37-8.64c0-4.3,4.54-7.3,11.05-7.3c5.39,0,11.07,2,14.85,5.16
			l4.39-7.14c-4.58-4.14-11.48-6.5-19.08-6.5c-12.75,0-21.31,6.55-21.31,16.29c0,8.44,6.62,14.27,19.67,17.34l0.21,0.05
			c6.21,1.49,13.25,3.17,13.25,8.85c0,4.45-5.08,7.81-11.82,7.81c-6.24,0-13.11-2.72-18.21-7.15l-4.91,7.27
			c5.86,5.1,14.83,8.36,23.12,8.36c12.7,0,21.91-7.07,21.91-16.8C284.26,239.19,271.26,234.81,263.5,233.24z"/>
		<path class="st0" d="M322.6,209.84l-21.89,56.76h10.54l4.17-11.41h26.61l4.18,11.41h10.71l-21.8-56.76H322.6z M318.61,246.37
			l10.13-27.5l10.02,27.5H318.61z"/>
		<polygon class="st0" points="417.75,209.84 417.75,250.62 389.49,209.84 379.08,209.84 379.08,266.6 388.84,266.6 388.84,225.82 
			417.11,266.6 427.5,266.6 427.5,209.84 		"/>
	</g>
	<g>
		<g>
			<radialGradient id="SVGID_1_" cx="96.4406" cy="-14.6615" r="268.6867" gradientUnits="userSpaceOnUse">
				<stop  offset="0.1135" style="stop-color:#ED09FE"/>
				<stop  offset="1" style="stop-color:#04A7FD"/>
			</radialGradient>
			<path class="st1" d="M266.37,185.4c-39.05,0-70.81-31.77-70.81-70.81V70.81c0-19.23-15.65-34.88-34.88-34.88
				c-19.23,0-34.88,15.65-34.88,34.88v77.02H89.86V70.81C89.86,31.77,121.63,0,160.68,0c39.05,0,70.81,31.77,70.81,70.81v43.77
				c0,19.23,15.65,34.88,34.88,34.88c19.23,0,34.88-15.65,34.88-34.88V44.1h35.93v70.49C337.18,153.63,305.42,185.4,266.37,185.4z"
				/>
		</g>
	</g>
	<radialGradient id="SVGID_2_" cx="125.6245" cy="152.8754" r="178.2513" gradientUnits="userSpaceOnUse">
		<stop  offset="0.0437" style="stop-color:#001D78"/>
		<stop  offset="1" style="stop-color:#262262;stop-opacity:0"/>
	</radialGradient>
	<path class="st2" d="M266.37,185.4c9.36,0,18.29-1.84,26.47-5.15c-44.44,3.95-56.85-37.87-60.18-56.72
		c-0.76-2.85-1.17-5.85-1.17-8.93l-19.77,44.97C224.71,175.33,244.39,185.4,266.37,185.4z"/>
	<radialGradient id="SVGID_3_" cx="122.8872" cy="145.9198" r="70.599" gradientUnits="userSpaceOnUse">
		<stop  offset="0.0437" style="stop-color:#001D78"/>
		<stop  offset="1" style="stop-color:#262262;stop-opacity:0"/>
	</radialGradient>
	<path class="st3" d="M125.8,70.81c0-0.12,0.01-0.23,0.01-0.35C100.5,85,92.22,107.3,89.86,124.23v23.6l35.93-3.33V70.81z"/>
	<g>
		<radialGradient id="SVGID_4_" cx="221.7459" cy="174.1071" r="132.2637" gradientUnits="userSpaceOnUse">
			<stop  offset="0" style="stop-color:#E2F45B"/>
			<stop  offset="1" style="stop-color:#097EB1"/>
		</radialGradient>
		<path class="st4" d="M263.77,185.35c-37.85-1.38-68.22-32.59-68.22-70.76V71.51c0-19.52-15.97-35.91-35.48-35.57
			c-18.67,0.32-33.8,15.36-34.27,33.99c0.2-32.54,11.64-56.21,34.11-63.84c13.36-4.53,28.07-2.12,39.83,5.69
			c19.12,12.69,31.75,34.42,31.75,59.03v43.78C231.49,114.59,222.94,183.26,263.77,185.35z"/>
		<radialGradient id="SVGID_5_" cx="84.7527" cy="-26.1691" r="178.2757" gradientUnits="userSpaceOnUse">
			<stop  offset="0.0437" style="stop-color:#001D78"/>
			<stop  offset="1" style="stop-color:#262262;stop-opacity:0"/>
		</radialGradient>
		<path class="st5" d="M265.64,185.39c0.24,0,0.49,0.01,0.73,0.01C266.37,185.4,266.08,185.27,265.64,185.39z"/>
	</g>
	<g>
		<radialGradient id="SVGID_6_" cx="87.1724" cy="148.6299" r="111.9664" gradientUnits="userSpaceOnUse">
			<stop  offset="0.1135" style="stop-color:#ED0972"/>
			<stop  offset="1" style="stop-color:#F7941D"/>
		</radialGradient>
		<path class="st6" d="M126.93,147.83H89.86c0-39.06,31.78-70.84,70.84-70.84h10.38v37.06H160.7
			C142.08,114.05,126.93,129.21,126.93,147.83z"/>
	</g>
	<radialGradient id="SVGID_7_" cx="103.336" cy="108.7533" r="117.502" gradientUnits="userSpaceOnUse">
		<stop  offset="0" style="stop-color:#AE2900"/>
		<stop  offset="0.8865" style="stop-color:#ED0972;stop-opacity:0"/>
	</radialGradient>
	<path class="st7" d="M160.7,114.05h10.38V76.99c-47.43,6.37-44.16,70.84-44.16,70.84C126.93,129.21,142.08,114.05,160.7,114.05z"/>
	<g>
		<path class="st0" d="M453.29,197.74c-2.28,0-4.51,0.68-6.41,1.94c-1.9,1.27-3.38,3.07-4.25,5.18c-0.87,2.11-1.1,4.43-0.66,6.67
			s1.54,4.29,3.16,5.91c1.61,1.61,3.67,2.71,5.91,3.16c2.24,0.45,4.56,0.22,6.67-0.66c2.11-0.87,3.91-2.35,5.18-4.25
			c1.27-1.9,1.94-4.13,1.94-6.41c0-3.06-1.22-6-3.38-8.16C459.29,198.95,456.35,197.74,453.29,197.74L453.29,197.74z M453.29,218.51
			c-1.83,0-3.61-0.54-5.13-1.56c-1.52-1.01-2.7-2.46-3.4-4.14c-0.7-1.69-0.88-3.54-0.53-5.33c0.36-1.79,1.24-3.44,2.53-4.73
			c1.29-1.29,2.94-2.17,4.73-2.53c1.79-0.36,3.65-0.17,5.33,0.53c1.69,0.7,3.13,1.88,4.14,3.4c1.01,1.52,1.56,3.3,1.56,5.13
			c0,2.45-0.97,4.8-2.7,6.53C458.09,217.53,455.74,218.51,453.29,218.51L453.29,218.51z"/>
		<path class="st0" d="M457.91,206.97c0-0.92-0.36-1.8-1.01-2.45c-0.65-0.65-1.53-1.01-2.45-1.01h-5.77v11.54h2.31v-4.62h1.68
			l3.08,4.62h2.77l-3.17-4.75c0.73-0.2,1.38-0.63,1.84-1.23C457.65,208.46,457.9,207.73,457.91,206.97z M454.44,208.12h-3.46v-2.31
			h3.46c0.31,0,0.6,0.12,0.82,0.34c0.22,0.22,0.34,0.51,0.34,0.82c0,0.31-0.12,0.6-0.34,0.82
			C455.04,208,454.75,208.12,454.44,208.12z"/>
	</g>
</g>
</svg>
