<svg width="24" height="24" viewBox="0 0 24 24" fill="none" xmlns="http://www.w3.org/2000/svg">
<path d="M16.5 1.5H7.5C4.1865 1.5 1.5 4.1865 1.5 7.5V16.5C1.5 19.8135 4.1865 22.5 7.5 22.5H16.5C19.8135 22.5 22.5 19.8135 22.5 16.5V7.5C22.5 4.1865 19.8135 1.5 16.5 1.5ZM12.9375 17.8995V13.707H14.3355L14.6017 11.973H12.9375V10.8472C12.9375 10.3725 13.17 9.9105 13.9155 9.9105H14.6722V8.43375C14.6722 8.43375 13.9852 8.31675 13.329 8.31675C11.9587 8.31675 11.0625 9.14775 11.0625 10.6515V11.973H9.53925V13.707H11.0625V17.8995C8.19375 17.4495 6 14.967 6 11.9722C6 8.65875 8.6865 5.97225 12 5.97225C15.3135 5.97225 18 8.65875 18 11.9722C18 14.967 15.8062 17.4495 12.9375 17.8995Z" fill="#BDBDED"/>
</svg>
