<svg width="30" height="31" viewBox="0 0 30 31" fill="none" xmlns="http://www.w3.org/2000/svg">
<g filter="url(#filter0_d_105_129)">
<path d="M19.677 8.4615C19.5682 8.18175 19.4385 7.9815 19.2285 7.7715C19.0185 7.5615 18.819 7.43175 18.5385 7.323C18.327 7.24125 18.0097 7.143 17.4247 7.11675C16.7917 7.08825 16.602 7.0815 15 7.0815C13.398 7.0815 13.2083 7.0875 12.5753 7.11675C11.9903 7.14375 11.6722 7.24125 11.4615 7.323C11.1817 7.43175 10.9815 7.56225 10.7715 7.77225C10.5615 7.98225 10.4317 8.18175 10.323 8.46225C10.2405 8.67375 10.143 8.99175 10.1168 9.576C10.0875 10.209 10.0815 10.3988 10.0815 12.0008C10.0815 13.6028 10.0875 13.7925 10.1168 14.4255C10.1438 15.0105 10.2413 15.3285 10.323 15.5393C10.4317 15.819 10.5615 16.0193 10.7715 16.2293C10.9815 16.4393 11.181 16.569 11.4615 16.6778C11.673 16.7603 11.9903 16.8578 12.5753 16.884C13.2083 16.9125 13.3973 16.9193 15 16.9193C16.6027 16.9193 16.7917 16.9133 17.4247 16.884C18.0097 16.857 18.3278 16.7595 18.5385 16.6778C18.8183 16.569 19.0185 16.4393 19.2285 16.2293C19.4385 16.0193 19.5682 15.8198 19.677 15.5393C19.7595 15.3278 19.857 15.0105 19.8832 14.4255C19.9125 13.7925 19.9185 13.6028 19.9185 12.0008C19.9185 10.3988 19.9125 10.209 19.8832 9.576C19.8562 8.991 19.7587 8.673 19.677 8.46225V8.4615ZM15 15.081C13.2983 15.081 11.919 13.7018 11.919 12C11.919 10.2983 13.2983 8.919 15 8.919C16.7017 8.919 18.081 10.2983 18.081 12C18.081 13.7018 16.7017 15.081 15 15.081ZM18.2025 9.51675C17.805 9.51675 17.4825 9.19425 17.4825 8.79675C17.4825 8.39925 17.805 8.07675 18.2025 8.07675C18.6 8.07675 18.9225 8.39925 18.9225 8.79675C18.9225 9.19425 18.6 9.51675 18.2025 9.51675ZM19.5 1.49925H10.5C7.1865 1.5 4.5 4.1865 4.5 7.5V16.5C4.5 19.8135 7.1865 22.5 10.5 22.5H19.5C22.8135 22.5 25.5 19.8135 25.5 16.5V7.5C25.5 4.1865 22.8135 1.5 19.5 1.5V1.49925ZM20.964 14.4728C20.9347 15.1118 20.8335 15.5475 20.685 15.9293C20.532 16.3238 20.3265 16.6583 19.9928 16.992C19.659 17.3258 19.3245 17.5305 18.93 17.6843C18.5483 17.8328 18.1125 17.934 17.4735 17.9633C16.8338 17.9925 16.629 17.9993 15 17.9993C13.371 17.9993 13.1662 17.9925 12.5265 17.9633C11.8875 17.934 11.4518 17.8328 11.07 17.6843C10.6755 17.5313 10.341 17.3258 10.0073 16.992C9.6735 16.6583 9.46875 16.3238 9.315 15.9293C9.1665 15.5475 9.06525 15.1118 9.036 14.4728C9.00675 13.833 9 13.6283 9 11.9993C9 10.3703 9.00675 10.1655 9.036 9.52575C9.06525 8.88675 9.1665 8.451 9.315 8.06925C9.468 7.67475 9.6735 7.34025 10.0073 7.0065C10.341 6.67275 10.6755 6.468 11.07 6.31425C11.4518 6.16575 11.8875 6.0645 12.5265 6.03525C13.1662 6.006 13.371 5.99925 15 5.99925C16.629 5.99925 16.8338 6.006 17.4735 6.03525C18.1125 6.0645 18.5483 6.16575 18.93 6.31425C19.3245 6.46725 19.659 6.67275 19.9928 7.0065C20.3265 7.34025 20.5312 7.67475 20.685 8.06925C20.8335 8.451 20.9347 8.88675 20.964 9.52575C20.9932 10.1655 21 10.3703 21 11.9993C21 13.6283 20.9932 13.833 20.964 14.4728ZM17.0002 11.9993C17.0002 13.104 16.1047 13.9995 15 13.9995C13.8953 13.9995 12.9998 13.104 12.9998 11.9993C12.9998 10.8945 13.8953 9.999 15 9.999C16.1047 9.999 17.0002 10.8945 17.0002 11.9993Z" fill="#BDBDED"/>
</g>
<defs>
<filter id="filter0_d_105_129" x="-1" y="0" width="32" height="32" filterUnits="userSpaceOnUse" color-interpolation-filters="sRGB">
<feFlood flood-opacity="0" result="BackgroundImageFix"/>
<feColorMatrix in="SourceAlpha" type="matrix" values="0 0 0 0 0 0 0 0 0 0 0 0 0 0 0 0 0 0 127 0" result="hardAlpha"/>
<feOffset dy="4"/>
<feGaussianBlur stdDeviation="2"/>
<feComposite in2="hardAlpha" operator="out"/>
<feColorMatrix type="matrix" values="0 0 0 0 0 0 0 0 0 0 0 0 0 0 0 0 0 0 0.25 0"/>
<feBlend mode="normal" in2="BackgroundImageFix" result="effect1_dropShadow_105_129"/>
<feBlend mode="normal" in="SourceGraphic" in2="effect1_dropShadow_105_129" result="shape"/>
</filter>
</defs>
</svg>
