<svg width="24" height="24" viewBox="0 0 24 24" fill="none" xmlns="http://www.w3.org/2000/svg">
<path d="M16.5 1.5H7.5C4.1865 1.5 1.5 4.1865 1.5 7.5V16.5C1.5 19.8135 4.1865 22.5 7.5 22.5H16.5C19.8135 22.5 22.5 19.8135 22.5 16.5V7.5C22.5 4.1865 19.8135 1.5 16.5 1.5ZM9.0015 16.5H6.6465V9.4155H9.0015V16.5ZM7.824 8.448H7.809C7.0185 8.448 6.50775 7.90425 6.50775 7.224C6.50775 6.52875 7.03425 6 7.83975 6C8.64525 6 9.141 6.52875 9.15675 7.224C9.15675 7.9035 8.64525 8.448 7.82475 8.448H7.824ZM17.4923 16.5H15.138V12.7095C15.138 11.757 14.7975 11.1075 13.9447 11.1075C13.2945 11.1075 12.9068 11.5455 12.7365 11.9685C12.6743 12.12 12.6593 12.3315 12.6593 12.543V16.4993H10.3043C10.3043 16.4993 10.335 10.0793 10.3043 9.41475H12.6593V10.4183C12.972 9.93525 13.5315 9.24825 14.7817 9.24825C16.3312 9.24825 17.493 10.2607 17.493 12.4373V16.4993L17.4923 16.5Z" fill="#BDBDED"/>
</svg>
