<svg width="428" height="307" viewBox="0 0 428 307" fill="none" xmlns="http://www.w3.org/2000/svg">
<path d="M60.6 297.1V283H65.2V297.1C65.2 298.4 65.7163 299.646 66.6352 300.565C67.5541 301.484 68.8005 302 70.1 302C71.3996 302 72.6459 301.484 73.5648 300.565C74.4838 299.646 75 298.4 75 297.1V283H79.6V297.1C79.6105 298.35 79.3671 299.589 78.8845 300.742C78.4019 301.894 77.6902 302.937 76.7925 303.807C75.8949 304.676 74.83 305.355 73.6624 305.8C72.4948 306.246 71.2488 306.45 70 306.4C68.7615 306.447 67.5265 306.239 66.3714 305.79C65.2163 305.34 64.1657 304.659 63.2846 303.787C62.4035 302.915 61.7107 301.872 61.2489 300.722C60.7872 299.572 60.5663 298.339 60.6 297.1" fill="white"/>
<path d="M108.7 282.9V306H104L93.4998 290.9V306H88.7998V282.9H93.4998L104 298.1V282.9H108.7Z" fill="white"/>
<path d="M139 294.5C139 301.1 133.9 306 127.2 306H118.2V282.9H127.2C128.745 282.855 130.283 283.123 131.721 283.688C133.16 284.253 134.47 285.102 135.572 286.186C136.674 287.269 137.546 288.564 138.135 289.993C138.724 291.422 139.018 292.955 139 294.5M134.2 294.5C134.227 293.556 134.063 292.615 133.717 291.736C133.371 290.857 132.851 290.057 132.187 289.384C131.524 288.711 130.731 288.18 129.857 287.822C128.983 287.464 128.045 287.286 127.1 287.3H122.8V301.7H127.1C128.045 301.714 128.983 301.536 129.857 301.178C130.731 300.82 131.524 300.289 132.187 299.616C132.851 298.943 133.371 298.143 133.717 297.264C134.063 296.385 134.227 295.444 134.2 294.5" fill="white"/>
<path d="M163 301.7V306H147.3V282.9H162.9V287.3H151.9V292.2H161.7V296.6H151.9V301.7H163Z" fill="white"/>
<path d="M179 297.8H176.3V306H171.7V282.9H181.5C182.518 282.862 183.533 283.031 184.483 283.397C185.433 283.763 186.299 284.318 187.029 285.029C187.758 285.739 188.335 286.591 188.726 287.531C189.116 288.472 189.312 289.482 189.3 290.5C189.317 292.063 188.815 293.587 187.875 294.835C186.934 296.083 185.607 296.985 184.1 297.4L189.9 306H184.3L179 297.8ZM176.2 293.8H181.3C182.149 293.8 182.963 293.463 183.563 292.863C184.163 292.263 184.5 291.449 184.5 290.6C184.5 289.751 184.163 288.937 183.563 288.337C182.963 287.737 182.149 287.4 181.3 287.4H176.2V293.8Z" fill="white"/>
<path d="M227.9 282.9L220.7 306H216.1L211.6 290L207 306H202.4L195.2 282.9H200.1L204.8 299.7L209.6 282.9H213.6L218.4 299.7L223.2 282.9H227.9Z" fill="white"/>
<path d="M243 297.8H240.3V306H235.7V282.9H245.5C246.518 282.862 247.533 283.031 248.483 283.397C249.433 283.763 250.299 284.318 251.029 285.029C251.758 285.739 252.335 286.591 252.726 287.531C253.116 288.472 253.312 289.482 253.3 290.5C253.317 292.063 252.815 293.587 251.875 294.835C250.934 296.083 249.607 296.985 248.1 297.4L253.9 306H248.3L243 297.8ZM240.2 293.8H245.3C246.149 293.8 246.963 293.463 247.563 292.863C248.163 292.263 248.5 291.449 248.5 290.6C248.5 289.751 248.163 288.937 247.563 288.337C246.963 287.737 246.149 287.4 245.3 287.4H240.2V293.8Z" fill="white"/>
<path d="M266.2 282.9H261.6V306H266.2V282.9Z" fill="white"/>
<path d="M292.2 287.3H285.6V306H281V287.3H274.3V282.9H292.2V287.3Z" fill="white"/>
<path d="M304.9 282.9H300.3V306H304.9V282.9Z" fill="white"/>
<path d="M334.2 282.9V306H329.6L319.1 290.9V306H314.4V282.9H319.1L329.6 298.1V282.9H334.2Z" fill="white"/>
<path d="M366.4 293V294.6C366.46 296.157 366.198 297.71 365.633 299.162C365.067 300.614 364.209 301.934 363.112 303.041C362.015 304.147 360.702 305.016 359.255 305.594C357.808 306.172 356.257 306.446 354.7 306.4C352.703 306.335 350.755 305.769 349.034 304.753C347.314 303.737 345.877 302.304 344.856 300.587C343.836 298.87 343.263 296.923 343.193 294.926C343.122 292.93 343.556 290.947 344.453 289.162C345.35 287.377 346.682 285.847 348.327 284.712C349.971 283.577 351.874 282.875 353.862 282.669C355.849 282.464 357.856 282.762 359.698 283.536C361.539 284.311 363.157 285.536 364.4 287.1L360.9 289.9C360.181 288.973 359.254 288.228 358.195 287.724C357.135 287.221 355.973 286.973 354.8 287C352.811 287 350.903 287.79 349.497 289.197C348.09 290.603 347.3 292.511 347.3 294.5C347.3 296.489 348.09 298.397 349.497 299.803C350.903 301.21 352.811 302 354.8 302C356.307 302.064 357.791 301.614 359.008 300.724C360.226 299.833 361.104 298.555 361.5 297.1H355.2V293H366.4Z" fill="white"/>
<path d="M21.9 209.8L0 266.6H10.5L14.7 255.2H41.3L45.5 266.6H56.2L34.4 209.8H21.9ZM17.9 246.4L28 218.9L38 246.4H17.9Z" fill="white"/>
<path d="M108.8 244.7C112.416 243.654 115.593 241.458 117.849 238.444C120.104 235.431 121.316 231.764 121.3 228C121.3 217.6 113.2 209.8 102.4 209.8H78.4004V266.6H88.2004V245.6H96.7004L110.2 266.6H121.9L107.5 245.1L108.8 244.7ZM88.1004 237.4V218.9H102.1C104.567 218.9 106.932 219.88 108.676 221.624C110.421 223.368 111.4 225.734 111.4 228.2C111.4 230.667 110.421 233.032 108.676 234.776C106.932 236.52 104.567 237.5 102.1 237.5H88.1004V237.4Z" fill="white"/>
<path d="M139.7 218.9H156.7V266.6H166.5V218.9H183.4V209.8H139.7V218.9Z" fill="white"/>
<path d="M216.2 209.8H206.4V266.6H216.2V209.8Z" fill="white"/>
<path d="M263.5 233.2C257.7 231.9 251.1 229.8 251.1 224.6C251.1 220.3 255.6 217.3 262.2 217.3C267.611 217.304 272.861 219.136 277.1 222.5L281.5 215.4C276.9 211.3 270 208.9 262.4 208.9C249.7 208.9 241.1 215.4 241.1 225.2C241.1 233.6 247.7 239.5 260.8 242.5H261C267.2 244 274.2 245.7 274.2 251.3C274.2 255.8 269.1 259.1 262.4 259.1C255.676 258.909 249.234 256.361 244.2 251.9L239.3 259.2C245.814 264.556 253.966 267.521 262.4 267.6C275.1 267.6 284.3 260.5 284.3 250.8C284.2 239.2 271.2 234.8 263.5 233.2Z" fill="white"/>
<path d="M322.6 209.8L300.7 266.6H311.2L315.4 255.2H342L346.2 266.6H356.9L335.1 209.8H322.6ZM318.6 246.4L328.7 218.9L338.7 246.4H318.6Z" fill="white"/>
<path d="M417.7 209.8V250.6L389.5 209.8H379.1V266.6H388.8V225.8L417.1 266.6H427.5V209.8H417.7Z" fill="white"/>
<path d="M266.3 185.4C247.533 185.366 229.545 177.895 216.275 164.625C203.004 151.355 195.534 133.367 195.5 114.6V70.8C195.5 61.544 191.823 52.667 185.278 46.122C178.733 39.577 169.856 35.9 160.6 35.9C151.344 35.9 142.467 39.577 135.922 46.122C129.377 52.667 125.7 61.544 125.7 70.8V147.8H89.7998V70.8C89.7998 61.5024 91.6311 52.2959 95.1891 43.706C98.7472 35.1162 103.962 27.3112 110.537 20.7368C117.111 14.1625 124.916 8.94738 133.506 5.38934C142.096 1.83131 151.302 0 160.6 0C169.897 0 179.104 1.83131 187.694 5.38934C196.284 8.94738 204.089 14.1625 210.663 20.7368C217.237 27.3112 222.452 35.1162 226.01 43.706C229.569 52.2959 231.4 61.5024 231.4 70.8V114.6C231.4 123.856 235.077 132.733 241.622 139.278C248.167 145.823 257.044 149.5 266.3 149.5C275.556 149.5 284.433 145.823 290.978 139.278C297.523 132.733 301.2 123.856 301.2 114.6V44.1H337.1V114.6C337.1 123.898 335.269 133.104 331.711 141.694C328.152 150.284 322.937 158.089 316.363 164.663C309.789 171.238 301.984 176.453 293.394 180.011C284.804 183.569 275.597 185.4 266.3 185.4V185.4Z" fill="url(#paint0_radial_243_3447)"/>
<path d="M266.3 185.4C275.39 185.434 284.397 183.667 292.8 180.2C248.4 184.1 235.9 142.3 232.6 123.5C231.796 120.602 231.392 117.608 231.4 114.6L211.6 159.6C218.267 167.649 226.624 174.132 236.077 178.591C245.53 183.05 255.848 185.374 266.3 185.4Z" fill="url(#paint1_radial_243_3447)"/>
<path d="M125.8 70.7999V70.3999C100.5 84.8999 92.2004 107.2 89.9004 124.2V147.8L125.8 144.5V70.7999Z" fill="url(#paint2_radial_243_3447)"/>
<path d="M263.7 185.3C245.394 184.577 228.075 176.807 215.365 163.612C202.655 150.417 195.538 132.82 195.5 114.5V71.3999C195.5 51.8999 179.5 35.4999 160 35.7999C151.01 35.9761 142.432 39.6057 136.046 45.936C129.66 52.2663 125.955 60.8116 125.7 69.7999C125.9 37.2999 137.3 13.5999 159.8 5.99988C166.43 3.85413 173.462 3.25222 180.36 4.24011C187.258 5.22801 193.839 7.77959 199.6 11.6999C209.344 18.1527 217.339 26.9179 222.87 37.2131C228.402 47.5082 231.298 59.0129 231.3 70.6999V114.5C231.5 114.6 222.9 183.2 263.7 185.3Z" fill="url(#paint3_radial_243_3447)"/>
<path d="M265.6 185.4H266.3C266.3 185.4 266.1 185.2 265.6 185.4Z" fill="url(#paint4_radial_243_3447)"/>
<path d="M126.9 147.8H89.7998C89.8183 129.028 97.2836 111.031 110.557 97.7573C123.831 84.4838 141.828 77.0185 160.6 77H171V114.1H160.6C151.664 114.105 143.095 117.658 136.776 123.976C130.457 130.295 126.905 138.864 126.9 147.8Z" fill="url(#paint5_radial_243_3447)"/>
<path d="M160.7 114H171.1V76.8999C123.7 83.2999 126.9 147.7 126.9 147.7C126.945 138.759 130.523 130.198 136.855 123.885C143.187 117.571 151.758 114.018 160.7 114Z" fill="url(#paint6_radial_243_3447)"/>
<defs>
<radialGradient id="paint0_radial_243_3447" cx="0" cy="0" r="1" gradientUnits="userSpaceOnUse" gradientTransform="translate(96.4198 -14.68) scale(268.69 268.69)">
<stop offset="0.11" stop-color="#ED09FE"/>
<stop offset="1" stop-color="#04A7FD"/>
</radialGradient>
<radialGradient id="paint1_radial_243_3447" cx="0" cy="0" r="1" gradientUnits="userSpaceOnUse" gradientTransform="translate(125.6 152.85) scale(178.25 178.25)">
<stop offset="0.04" stop-color="#001D78"/>
<stop offset="1" stop-color="#262262" stop-opacity="0"/>
</radialGradient>
<radialGradient id="paint2_radial_243_3447" cx="0" cy="0" r="1" gradientUnits="userSpaceOnUse" gradientTransform="translate(122.86 145.9) scale(70.6 70.6)">
<stop offset="0.04" stop-color="#001D78"/>
<stop offset="1" stop-color="#262262" stop-opacity="0"/>
</radialGradient>
<radialGradient id="paint3_radial_243_3447" cx="0" cy="0" r="1" gradientUnits="userSpaceOnUse" gradientTransform="translate(221.72 174.08) scale(132.26 132.26)">
<stop stop-color="#E2F45B"/>
<stop offset="1" stop-color="#097EB1"/>
</radialGradient>
<radialGradient id="paint4_radial_243_3447" cx="0" cy="0" r="1" gradientUnits="userSpaceOnUse" gradientTransform="translate(84.7264 -26.1901) scale(178.283 178.28)">
<stop offset="0.04" stop-color="#001D78"/>
<stop offset="1" stop-color="#262262" stop-opacity="0"/>
</radialGradient>
<radialGradient id="paint5_radial_243_3447" cx="0" cy="0" r="1" gradientUnits="userSpaceOnUse" gradientTransform="translate(87.1498 148.61) scale(111.97 111.97)">
<stop offset="0.11" stop-color="#ED0972"/>
<stop offset="1" stop-color="#F7941D"/>
</radialGradient>
<radialGradient id="paint6_radial_243_3447" cx="0" cy="0" r="1" gradientUnits="userSpaceOnUse" gradientTransform="translate(103.31 108.73) scale(117.5 117.5)">
<stop stop-color="#AE2900"/>
<stop offset="0.89" stop-color="#ED0972" stop-opacity="0"/>
</radialGradient>
</defs>
</svg>
