<svg width="16" height="16" viewBox="0 0 116 83" fill="none" xmlns="http://www.w3.org/2000/svg">
<g clip-path="url(#clip0_171_1036)">
<path d="M16.457 80.4704V76.6379H17.7106V80.4541C17.7567 80.7769 17.9179 81.0723 18.1647 81.286C18.4114 81.4997 18.7271 81.6173 19.0538 81.6173C19.3805 81.6173 19.6962 81.4997 19.9429 81.286C20.1897 81.0723 20.3509 80.7769 20.397 80.4541V76.6379H21.6479V80.4704C21.6261 81.143 21.3431 81.7807 20.8587 82.2488C20.3744 82.7169 19.7266 82.9786 19.0524 82.9786C18.3783 82.9786 17.7305 82.7169 17.2462 82.2488C16.7618 81.7807 16.4788 81.143 16.457 80.4704" fill="#4C4C4C"></path>
<path d="M29.4869 76.6406V82.8917H28.217L25.3679 78.7857V82.8917H24.1143V76.6406H25.3842L28.236 80.7439V76.6406H29.4869Z" fill="#4C4C4C"></path>
<path d="M37.7167 79.7634C37.722 80.1808 37.6425 80.595 37.483 80.981C37.3234 81.3669 37.0871 81.7165 36.7883 82.0086C36.4895 82.3008 36.1345 82.5294 35.7446 82.6807C35.3548 82.832 34.9383 82.9029 34.5202 82.8889H32.0781V76.6378H34.5202C34.9383 76.6239 35.3548 76.6947 35.7446 76.846C36.1345 76.9973 36.4895 77.2259 36.7883 77.5181C37.0871 77.8103 37.3234 78.1599 37.483 78.5458C37.6425 78.9317 37.722 79.3459 37.7167 79.7634ZM36.4278 79.7634C36.4348 79.5071 36.3897 79.2521 36.2951 79.0137C36.2006 78.7754 36.0586 78.5586 35.8778 78.3766C35.6969 78.1946 35.481 78.051 35.243 77.9547C35.005 77.8583 34.7499 77.8112 34.4931 77.816H33.3236V81.7107H34.4931C34.7499 81.7156 35.005 81.6684 35.243 81.5721C35.481 81.4757 35.6969 81.3322 35.8778 81.1501C36.0586 80.9681 36.2006 80.7514 36.2951 80.513C36.3897 80.2746 36.4348 80.0196 36.4278 79.7634" fill="#4C4C4C"></path>
<path d="M44.2398 81.7135V82.8917H39.9824V76.6406H44.1937V77.8188H41.236V79.1568H43.8952V80.3349H41.236V81.7135H44.2398Z" fill="#4C4C4C"></path>
<path d="M48.5655 80.6599H47.822V82.889H46.5684V76.6379H49.2384C49.5139 76.6277 49.7885 76.6731 50.046 76.7715C50.3034 76.8699 50.5382 77.0192 50.7364 77.2104C50.9346 77.4017 51.092 77.6309 51.1992 77.8844C51.3064 78.1378 51.3612 78.4103 51.3603 78.6855C51.3619 79.1082 51.2256 79.52 50.972 79.8586C50.7185 80.1972 50.3614 80.4442 49.9547 80.5624L51.515 82.889H50.009L48.5655 80.6599ZM47.822 79.5765H49.2113C49.4363 79.5641 49.6481 79.466 49.803 79.3026C49.9579 79.1391 50.0442 78.9226 50.0442 78.6976C50.0442 78.4726 49.9579 78.2562 49.803 78.0927C49.6481 77.9293 49.4363 77.8312 49.2113 77.8188H47.822V79.5765Z" fill="#4C4C4C"></path>
<path d="M61.8506 76.6406L59.8997 82.8917H58.6488L57.4141 78.5501L56.1687 82.8917H54.9259L52.9668 76.6406H54.291L55.5799 81.1854L56.8769 76.6406H57.9758L59.2729 81.1854L60.5617 76.6406H61.8506Z" fill="#4C4C4C"></path>
<path d="M65.9317 80.6599H65.1882V82.8889H63.9346V76.6379H66.6019C66.8776 76.6273 67.1526 76.6724 67.4103 76.7707C67.668 76.8689 67.9032 77.0181 68.1017 77.2094C68.3002 77.4007 68.4578 77.63 68.5652 77.8837C68.6726 78.1374 68.7275 78.4101 68.7265 78.6854C68.7279 79.1085 68.5912 79.5206 68.3372 79.8592C68.0831 80.1979 67.7254 80.4447 67.3183 80.5624L68.8812 82.8889H67.3725L65.9317 80.6599ZM65.1882 79.5765H66.5748C66.7998 79.5641 67.0116 79.466 67.1665 79.3026C67.3214 79.1391 67.4077 78.9226 67.4077 78.6976C67.4077 78.4726 67.3214 78.2562 67.1665 78.0927C67.0116 77.9293 66.7998 77.8312 66.5748 77.8187H65.1882V79.5765Z" fill="#4C4C4C"></path>
<path d="M72.2458 76.6406H70.9922V82.8917H72.2458V76.6406Z" fill="#4C4C4C"></path>
<path d="M79.306 77.8188H77.4988V82.889H76.2479V77.8188H74.4326V76.6406H79.306V77.8188Z" fill="#4C4C4C"></path>
<path d="M82.7411 76.6406H81.4902V82.8917H82.7411V76.6406Z" fill="#4C4C4C"></path>
<path d="M90.6998 76.6406V82.8917H89.4299L86.5808 78.7857V82.8917H85.3271V76.6406H86.597L89.4489 80.7439V76.6406H90.6998Z" fill="#4C4C4C"></path>
<path d="M99.4178 79.3762V79.8095C99.4325 80.2305 99.3605 80.65 99.2064 81.0421C99.0523 81.4342 98.8193 81.7906 98.5218 82.0894C98.2243 82.3881 97.8686 82.6228 97.4767 82.779C97.0848 82.9351 96.6649 83.0094 96.2431 82.9973C95.6993 82.98 95.1686 82.8263 94.7 82.5504C94.2314 82.2744 93.84 81.8851 93.5618 81.4184C93.2837 80.9516 93.1278 80.4225 93.1085 79.8797C93.0892 79.337 93.2071 78.7982 93.4515 78.3129C93.6958 77.8277 94.0586 77.4117 94.5065 77.1033C94.9543 76.7949 95.4728 76.604 96.014 76.5483C96.5552 76.4926 97.1017 76.5738 97.6032 76.7845C98.1047 76.9952 98.5449 77.3286 98.8833 77.7538L97.939 78.5041C97.745 78.2592 97.4974 78.0618 97.2152 77.9271C96.933 77.7924 96.6237 77.7238 96.3109 77.7267C95.8026 77.7722 95.3297 78.0058 94.9853 78.3818C94.6409 78.7577 94.4499 79.2487 94.4499 79.7581C94.4499 80.2675 94.6409 80.7584 94.9853 81.1344C95.3297 81.5103 95.8026 81.744 96.3109 81.7894C96.7098 81.8034 97.102 81.6843 97.4254 81.4508C97.7488 81.2172 97.9849 80.8827 98.0964 80.5002H96.4005V79.387L99.4178 79.3762Z" fill="#4C4C4C"></path>
<path d="M5.93702 56.8311L0 72.2068H2.85455L3.99148 69.1246H11.2093L12.3516 72.2068H15.2577L9.33969 56.8311H5.93702ZM4.85164 66.7277L7.60037 59.2795L10.3138 66.7277H4.85164Z" fill="#4C4C4C"></path>
<path d="M29.5305 66.2917C30.5098 66.0071 31.3701 65.4127 31.9818 64.5979C32.5935 63.7832 32.9236 62.7922 32.9223 61.774C32.9223 58.9573 30.7135 56.8339 27.7857 56.8339H21.2734V72.2069H23.9191V66.5192H26.2336L29.9103 72.2069H33.0905L29.175 66.4001L29.5305 66.2917ZM23.9082 64.3064V59.2904H27.707C28.3734 59.2904 29.0125 59.5547 29.4837 60.025C29.955 60.4953 30.2197 61.1333 30.2197 61.7984C30.2197 62.4636 29.955 63.1015 29.4837 63.5719C29.0125 64.0422 28.3734 64.3064 27.707 64.3064H23.9082Z" fill="#4C4C4C"></path>
<path d="M37.9121 59.2904H42.5331V72.2069H45.1814V59.2904H49.7807V56.8339H37.9121V59.2904Z" fill="#4C4C4C"></path>
<path d="M58.6622 56.8339H56.0166V72.2069H58.6622V56.8339Z" fill="#4C4C4C"></path>
<path d="M71.5048 63.1661C69.9419 62.8249 68.1483 62.2507 68.1483 60.826C68.1483 59.6614 69.3802 58.8489 71.1331 58.8489C72.5953 58.85 74.0147 59.3422 75.1625 60.2464L76.3565 58.3126C75.1137 57.1913 73.2414 56.5521 71.1792 56.5521C67.7195 56.5521 65.3968 58.3261 65.3968 60.9642C65.3968 63.2501 67.1904 64.8291 70.7342 65.6606H70.7885C72.4735 66.0614 74.3838 66.5192 74.3838 68.0548C74.3838 69.2628 73.0053 70.1728 71.1792 70.1728C69.3569 70.1194 67.6099 69.4348 66.238 68.2363L64.9111 70.2081C66.6824 71.6568 68.8975 72.4559 71.1873 72.4723C74.6307 72.4723 77.1325 70.5601 77.1325 67.9221C77.1325 64.7912 73.605 63.5968 71.5048 63.1661Z" fill="#4C4C4C"></path>
<path d="M87.5354 56.8311L81.5957 72.2068H84.4557L85.5872 69.1246H92.8077L93.9419 72.215H96.8453L90.93 56.8392L87.5354 56.8311ZM86.4501 66.7277L89.1988 59.2795L91.9122 66.7277H86.4501Z" fill="#4C4C4C"></path>
<path d="M113.354 56.8339V67.8789L105.686 56.8339H102.861V72.2069H105.51V61.1619L113.181 72.2069H116V56.8339H113.354Z" fill="#4C4C4C"></path>
<path d="M72.2779 50.2117C67.1819 50.2088 62.2954 48.1877 58.6909 44.5919C55.0865 40.9962 53.0589 36.1198 53.0531 31.0333V19.1784C53.0531 16.6729 52.056 14.27 50.281 12.4984C48.5061 10.7267 46.0988 9.73141 43.5886 9.73141C41.0785 9.73141 38.6711 10.7267 36.8962 12.4984C35.1213 14.27 34.1241 16.6729 34.1241 19.1784V40.0334H24.3828V19.1784C24.4429 14.1311 26.4938 9.31087 30.0909 5.7629C33.6879 2.21492 38.5411 0.22522 43.5981 0.22522C48.6551 0.22522 53.5083 2.21492 57.1054 5.7629C60.7024 9.31087 62.7533 14.1311 62.8134 19.1784V31.0333C62.8134 33.5388 63.8106 35.9417 65.5855 37.7133C67.3604 39.485 69.7678 40.4803 72.2779 40.4803C74.7881 40.4803 77.1954 39.485 78.9703 37.7133C80.7453 35.9417 81.7424 33.5388 81.7424 31.0333V11.9442H91.4919V31.0333C91.4861 36.1179 89.46 40.9927 85.8579 44.5881C82.2558 48.1835 77.372 50.2059 72.2779 50.2117Z" fill="url(#paint0_radial_171_1036)"></path>
<path d="M72.278 50.2117C74.7402 50.2107 77.179 49.7353 79.4605 48.8114C67.4019 49.8948 64.0318 38.5573 63.1283 33.4491C62.9194 32.6598 62.8136 31.8469 62.8135 31.0305L57.4463 43.2185C59.2467 45.4062 61.5108 47.1681 64.0755 48.3774C66.6401 49.5866 69.4416 50.2131 72.278 50.2117Z" fill="url(#paint1_radial_171_1036)"></path>
<path d="M34.1322 19.1784C34.1322 19.1459 34.1322 19.1161 34.1322 19.0836C27.2753 23.0217 25.0232 29.0588 24.3828 33.6442V40.0361L34.1322 39.1342V19.1784Z" fill="url(#paint2_radial_171_1036)"></path>
<path d="M71.5726 50.2008C66.6027 50.0146 61.8981 47.9148 58.4454 44.3418C54.9928 40.7688 53.0603 36.0001 53.0533 31.036V19.368C53.0533 14.0812 48.7117 9.64203 43.4259 9.7314C40.9867 9.77723 38.659 10.7599 36.927 12.4751C35.195 14.1902 34.1922 16.5057 34.127 18.9401C34.1812 10.1268 37.2854 3.71597 43.3852 1.64943C47.0104 0.422512 50.9992 1.07795 54.1902 3.19053C56.8361 4.93738 59.0075 7.31086 60.5108 10.0992C62.014 12.8875 62.8024 16.0039 62.8054 19.1703V31.0278C62.8054 31.0278 60.4908 49.6239 71.5726 50.2008Z" fill="url(#paint3_radial_171_1036)"></path>
<path d="M72.0801 50.2117H72.2782C72.2137 50.1913 72.1445 50.1913 72.0801 50.2117V50.2117Z" fill="url(#paint4_radial_171_1036)"></path>
<path d="M34.4389 40.0388H24.3828C24.3886 34.952 26.4156 30.0752 30.0192 26.4782C33.6228 22.8813 38.5086 20.858 43.6049 20.8523H46.4215V30.8898H43.6049C41.1748 30.8926 38.845 31.8575 37.1267 33.5726C35.4084 35.2878 34.4417 37.6132 34.4389 40.0388V40.0388Z" fill="url(#paint5_radial_171_1036)"></path>
<path d="M43.6047 30.8898H46.4213V20.8523C33.5541 22.5776 34.4387 40.0388 34.4387 40.0388C34.4416 37.6132 35.4082 35.2878 37.1266 33.5726C38.8449 31.8575 41.1746 30.8926 43.6047 30.8898V30.8898Z" fill="url(#paint6_radial_171_1036)"></path>
</g>
<defs>
<radialGradient id="paint0_radial_171_1036" cx="0" cy="0" r="1" gradientUnits="userSpaceOnUse" gradientTransform="translate(26.1683 -3.97056) scale(72.9077 72.7729)">
<stop offset="0.11" stop-color="#ED09FE"></stop>
<stop offset="1" stop-color="#04A7FD"></stop>
</radialGradient>
<radialGradient id="paint1_radial_171_1036" cx="0" cy="0" r="1" gradientUnits="userSpaceOnUse" gradientTransform="translate(34.0862 41.4038) scale(48.3673 48.2778)">
<stop offset="0.04" stop-color="#001D78"></stop>
<stop offset="1" stop-color="#262262" stop-opacity="0"></stop>
</radialGradient>
<radialGradient id="paint2_radial_171_1036" cx="0" cy="0" r="1" gradientUnits="userSpaceOnUse" gradientTransform="translate(33.3426 39.5215) scale(19.157 19.1216)">
<stop offset="0.04" stop-color="#001D78"></stop>
<stop offset="1" stop-color="#262262" stop-opacity="0"></stop>
</radialGradient>
<radialGradient id="paint3_radial_171_1036" cx="0" cy="0" r="1" gradientUnits="userSpaceOnUse" gradientTransform="translate(60.1679 47.1539) scale(35.8881 35.8218)">
<stop stop-color="#E2F45B"></stop>
<stop offset="1" stop-color="#097EB1"></stop>
</radialGradient>
<radialGradient id="paint4_radial_171_1036" cx="0" cy="0" r="1" gradientUnits="userSpaceOnUse" gradientTransform="translate(22.9978 -7.08798) scale(48.3741 48.286)">
<stop offset="0.04" stop-color="#001D78"></stop>
<stop offset="1" stop-color="#262262" stop-opacity="0"></stop>
</radialGradient>
<radialGradient id="paint5_radial_171_1036" cx="0" cy="0" r="1" gradientUnits="userSpaceOnUse" gradientTransform="translate(23.6529 40.2555) scale(30.3825 30.3263)">
<stop offset="0.11" stop-color="#ED0972"></stop>
<stop offset="1" stop-color="#F7941D"></stop>
</radialGradient>
<radialGradient id="paint6_radial_171_1036" cx="0" cy="0" r="1" gradientUnits="userSpaceOnUse" gradientTransform="translate(28.0377 29.4543) scale(31.883 31.8241)">
<stop stop-color="#AE2900"></stop>
<stop offset="0.89" stop-color="#ED0972" stop-opacity="0"></stop>
</radialGradient>
<clipPath id="clip0_171_1036">
<rect width="116" height="83" fill="white"></rect>
</clipPath>
</defs>
</svg>