<svg width="248" height="186" viewBox="0 0 248 186" fill="none" xmlns="http://www.w3.org/2000/svg">
<g clip-path="url(#clip0_194_1573)">
<path d="M176.5 185.4C157.733 185.366 139.745 177.895 126.475 164.625C113.205 151.355 105.734 133.367 105.7 114.6V70.8C105.7 61.544 102.023 52.667 95.478 46.122C88.933 39.577 80.0561 35.9 70.8 35.9C61.544 35.9 52.667 39.577 46.122 46.122C39.577 52.667 35.9 61.544 35.9 70.8V147.8H0V70.8C-2.7709e-07 61.5024 1.83131 52.2959 5.38934 43.706C8.94738 35.1162 14.1625 27.3112 20.7368 20.7368C27.3112 14.1625 35.1162 8.94738 43.706 5.38934C52.2959 1.83131 61.5024 0 70.8 0C80.0976 0 89.3042 1.83131 97.894 5.38934C106.484 8.94738 114.289 14.1625 120.863 20.7368C127.438 27.3112 132.653 35.1162 136.211 43.706C139.769 52.2959 141.6 61.5024 141.6 70.8V114.6C141.6 123.856 145.277 132.733 151.822 139.278C158.367 145.823 167.244 149.5 176.5 149.5C185.756 149.5 194.633 145.823 201.178 139.278C207.723 132.733 211.4 123.856 211.4 114.6V44.1H247.3V114.6C247.3 123.898 245.469 133.104 241.911 141.694C238.353 150.284 233.138 158.089 226.563 164.663C219.989 171.238 212.184 176.453 203.594 180.011C195.004 183.569 185.798 185.4 176.5 185.4V185.4Z" fill="white"/>
<path d="M176.5 185.4C185.59 185.434 194.597 183.667 203 180.2C158.6 184.1 146.1 142.3 142.8 123.5C141.996 120.602 141.592 117.607 141.6 114.6L121.8 159.6C128.467 167.649 136.824 174.132 146.277 178.591C155.73 183.049 166.048 185.374 176.5 185.4Z" fill="white"/>
<path d="M35.9996 70.8V70.4C10.6996 84.9 2.39961 107.2 0.0996094 124.2V147.8L35.9996 144.5V70.8Z" fill="white"/>
<path d="M173.9 185.3C155.594 184.578 138.276 176.807 125.566 163.612C112.855 150.418 105.738 132.821 105.7 114.5V71.4C105.7 51.9 89.7004 35.5 70.2004 35.8C61.2102 35.9762 52.6326 39.6058 46.2465 45.9361C39.8604 52.2664 36.1556 60.8117 35.9004 69.8C36.1004 37.3 47.5004 13.6 70.0004 6C76.6301 3.85425 83.6626 3.25234 90.5606 4.24024C97.4585 5.22813 104.039 7.77971 109.8 11.7C119.545 18.1528 127.539 26.9181 133.071 37.2132C138.602 47.5083 141.498 59.013 141.5 70.7V114.5C141.7 114.6 133.1 183.2 173.9 185.3Z" fill="white"/>
<path d="M175.8 185.4H176.5C176.5 185.4 176.3 185.2 175.8 185.4Z" fill="white"/>
<path d="M37.1 147.8H0C0.0185321 129.028 7.48376 111.031 20.7573 97.7573C34.0309 84.4838 52.0284 77.0185 70.8 77H81.2V114.1H70.8C61.8638 114.105 53.2952 117.658 46.9764 123.976C40.6576 130.295 37.1053 138.864 37.1 147.8Z" fill="white"/>
<path d="M70.9 114H81.3V76.9C33.9 83.3 37.1 147.7 37.1 147.7C37.1448 138.759 40.7235 130.198 47.0554 123.885C53.3872 117.572 61.9586 114.018 70.9 114Z" fill="white"/>
</g>
<defs>
<clipPath id="clip0_194_1573">
<rect width="247.3" height="185.4" fill="white"/>
</clipPath>
</defs>
</svg>
